# 3ds Max Wavefront OBJ Exporter v0.97b - (c)2007 guruware
# File Created: 16.04.2019 02:02:11

mtllib testHouse.mtl

#
# object Box001
#

v  2.5000 0.0000 -4.0000
v  2.5000 0.0000 4.0000
v  -2.5000 0.0000 4.0000
v  -2.5000 0.0000 -4.0000
v  0.0000 4.0000 4.0000
v  0.0000 4.0000 -4.0000
v  -2.5000 3.0000 -4.0000
v  -2.5000 3.0000 4.0000
v  2.5000 3.0000 4.0000
v  2.5000 3.0000 -4.0000
# 10 vertices

vn 0.0000 -1.0000 -0.0000
vn 0.0000 1.0000 -0.0000
vn -0.3714 0.9285 -0.0000
vn 0.0000 0.0000 1.0000
vn 1.0000 0.0000 -0.0000
vn 0.0000 0.0000 -1.0000
vn -1.0000 0.0000 -0.0000
vn 0.3714 0.9285 -0.0000
# 8 vertex normals

vt 0.2867 0.0200 0.0000
vt 0.7133 0.0200 0.0000
vt 0.7133 0.2867 0.0000
vt 0.2867 0.2867 0.0000
vt 0.7133 0.5903 0.0000
vt 0.2867 0.5903 0.0000
vt 0.2867 0.4467 0.0000
vt 0.7133 0.4467 0.0000
vt 0.9800 0.2867 0.0000
vt 0.9800 0.4467 0.0000
vt 0.8467 0.5000 0.0000
vt 0.2867 0.7339 0.0000
vt 0.7133 0.7339 0.0000
vt 0.7133 0.8939 0.0000
vt 0.2867 0.8939 0.0000
vt 0.0200 0.2867 0.0000
vt 0.1533 0.5000 0.0000
vt 0.0200 0.4467 0.0000
# 18 texture coords

o Box001
g Box001
usemtl Material__25
s 2
f 1/1/1 2/2/1 3/3/1 
f 3/3/1 4/4/1 1/1/1 
s 4
f 5/5/2 6/6/2 7/7/3 
f 7/7/3 8/8/3 5/5/2 
s 8
f 3/3/4 2/9/4 9/10/4 
f 3/3/4 9/10/4 5/11/4 
f 3/3/4 5/11/4 8/8/4 
s 16
f 10/12/5 9/13/5 2/14/5 
f 2/14/5 1/15/5 10/12/5 
s 32
f 1/16/6 4/4/6 7/7/6 
f 1/16/6 7/7/6 6/17/6 
f 1/16/6 6/17/6 10/18/6 
s 64
f 8/8/7 7/7/7 4/4/7 
f 4/4/7 3/3/7 8/8/7 
s 4
f 9/13/8 10/12/8 6/6/2 
f 6/6/2 5/5/2 9/13/8 
# 16 faces

